<svg xmlns="http://www.w3.org/2000/svg" width="63.686" height="63.724" viewBox="0 0 63.686 63.724">
  <g id="Group_22" data-name="Group 22" transform="translate(-1038.211 -1229.794)">
    <path id="Path_40" data-name="Path 40" d="M117.225,215.589a1.834,1.834,0,0,1-.933-.243L86.445,199.424A1.989,1.989,0,0,1,85.4,197.67V169.13a1.973,1.973,0,0,1,.952-1.7,2,2,0,0,1,1.941-.075l29.846,15.268a1.975,1.975,0,0,1,1.083,1.773v29.193a1.967,1.967,0,0,1-.971,1.7A1.874,1.874,0,0,1,117.225,215.589ZM89.376,196.475l25.87,13.812V185.612l-25.87-13.234Z" transform="translate(952.811 1077.929)" fill="#292929"/>
    <path id="Path_41" data-name="Path 41" d="M247.4,215.589a2.023,2.023,0,0,1-1.027-.28,1.99,1.99,0,0,1-.971-1.7V184.4a1.975,1.975,0,0,1,1.083-1.773l29.846-15.268a2,2,0,0,1,1.941.075,1.973,1.973,0,0,1,.952,1.7v28.54a2,2,0,0,1-1.045,1.755l-29.846,15.922A1.835,1.835,0,0,1,247.4,215.589Zm2-29.977v24.657l25.87-13.812V172.378Z" transform="translate(822.675 1077.929)" fill="#292929"/>
    <path id="Path_42" data-name="Path 42" d="M92.911,104.339,91.1,100.792l29.883-15.268a1.941,1.941,0,0,1,1.811,0l29.846,15.268-1.811,3.546L121.9,89.537Z" transform="translate(948.175 1144.494)" fill="#292929"/>
    <path id="Path_43" data-name="Path 43" d="M200.125,161.082h-3.976V147.7L166.9,133.065l1.773-3.565,30.35,15.194a1.992,1.992,0,0,1,1.1,1.773Z" transform="translate(886.522 1108.544)" fill="#292929"/>
  </g>
</svg>
