<svg xmlns="http://www.w3.org/2000/svg" width="52.901" height="48.483" viewBox="0 0 52.901 48.483">
  <g id="Group_21" data-name="Group 21" transform="translate(-0.001)">
    <path id="Path_10" data-name="Path 10" d="M175.1,222.2a4.4,4.4,0,1,1,4.4-4.4A4.409,4.409,0,0,1,175.1,222.2Zm0-5.5a1.1,1.1,0,1,0,1.1,1.1A1.1,1.1,0,0,0,175.1,216.7Z" transform="translate(-157.463 -195.761)" fill="#292929"/>
    <path id="Path_11" data-name="Path 11" d="M159.839,293.219h-3.3V290.46a2.765,2.765,0,0,0-2.759-2.759H148.26a2.765,2.765,0,0,0-2.759,2.759v2.759h-3.3V290.46a6.059,6.059,0,0,1,6.06-6.06h5.518a6.059,6.059,0,0,1,6.06,6.06Z" transform="translate(-133.381 -255.756)" fill="#292929"/>
    <path id="Path_12" data-name="Path 12" d="M339.511,249.784,337,247.63l3.456-4.045L337,239.554l2.511-2.154,4.386,5.115a1.666,1.666,0,0,1,0,2.154Z" transform="translate(-297.988 -216.041)" fill="#292929"/>
    <path id="Path_13" data-name="Path 13" d="M284.4,266.7h14.322V270H284.4Z" transform="translate(-253.541 -240.8)" fill="#292929"/>
    <path id="Path_14" data-name="Path 14" d="M132.156,148.083H91.36a6.059,6.059,0,0,1-6.06-6.06V105.66a6.059,6.059,0,0,1,6.06-6.06h40.78a6.059,6.059,0,0,1,6.06,6.06v36.378A6.043,6.043,0,0,1,132.156,148.083ZM91.36,102.9A2.765,2.765,0,0,0,88.6,105.66v36.378A2.765,2.765,0,0,0,91.36,144.8h40.78a2.765,2.765,0,0,0,2.759-2.759V105.66a2.765,2.765,0,0,0-2.759-2.759Z" transform="translate(-85.299 -99.6)" fill="#292929"/>
    <path id="Path_15" data-name="Path 15" d="M106.2,149.3h46.437v3.3H106.2Z" transform="translate(-102.96 -141.597)" fill="#292929"/>
  </g>
</svg>
