<svg xmlns="http://www.w3.org/2000/svg" width="17.974" height="15.727" viewBox="0 0 17.974 15.727">
  <g id="user" transform="translate(0 -0.008)">
    <path id="Path_48" data-name="Path 48" d="M89.077,7.5a3.745,3.745,0,1,1,3.745-3.744A3.749,3.749,0,0,1,89.077,7.5Zm0-6.366A2.621,2.621,0,1,0,91.7,3.753a2.624,2.624,0,0,0-2.621-2.621Zm0,0" transform="translate(-82.336)" fill="#292929"/>
    <path id="Path_49" data-name="Path 49" d="M12.919,262.748H.562A.562.562,0,0,1,0,262.187v-2.621a3.561,3.561,0,0,1,3.557-3.557H9.923a3.561,3.561,0,0,1,3.557,3.557v2.621A.562.562,0,0,1,12.919,262.748Zm-11.8-1.123H12.357v-2.06a2.437,2.437,0,0,0-2.434-2.434H3.557a2.437,2.437,0,0,0-2.434,2.434Zm0,0" transform="translate(0 -247.013)" fill="#292929"/>
    <path id="Path_50" data-name="Path 50" d="M305.6,187.8H299.23a.562.562,0,1,1,0-1.123H305.6a.562.562,0,1,1,0,1.123Zm0,0" transform="translate(-288.183 -180.115)" fill="#292929"/>
    <path id="Path_51" data-name="Path 51" d="M395.233,108.421a.562.562,0,0,1-.4-.959l2.6-2.6-2.6-2.6a.562.562,0,0,1,.795-.795l3,3a.562.562,0,0,1,0,.795l-3,3A.558.558,0,0,1,395.233,108.421Zm0,0" transform="translate(-380.817 -97.741)" fill="#292929"/>
  </g>
</svg>
