<svg xmlns="http://www.w3.org/2000/svg" width="352.91" height="261.6" viewBox="0 0 352.91 261.6">
  <g id="undraw_deliveries_131a" transform="translate(0 0.098)">
    <path id="Path_100" data-name="Path 100" d="M754.944,253.287l2.777-1.714c.264-.167.524-.346.792-.513a26.523,26.523,0,0,1-22-24.905,26.248,26.248,0,0,1,2.29-12.081,26.568,26.568,0,0,1,17.029-14.691l-.138,10.929,6-11.9a.238.238,0,0,1,.074,0A26.519,26.519,0,0,1,789.5,223.672c.022.506,0,1,0,1.487a31.705,31.705,0,0,0,5.241-7.736c2.543-5.669,2.6-12.088,2.39-19.891-.4-15.464-1.067-31.043-1.937-46.577a26.5,26.5,0,0,1-23.549-25.088c-.037-.814-.026-1.613,0-2.409a3.987,3.987,0,0,1,.03-.595c.052-.769.123-1.532.242-2.282a2.167,2.167,0,0,1,.067-.372q.164-.955.39-1.888c.059-.23.115-.465.178-.7a20.11,20.11,0,0,1,.628-2c.078-.219.171-.431.253-.647.19-.483.394-.959.61-1.431.115-.249.227-.494.349-.743.03-.063.056-.126.089-.19h0a26.5,26.5,0,0,1,31.136-13.449l-.178,14.222,5.948-11.746a26.355,26.355,0,0,1,12.639,28.574h.03c-.041.19-.1.372-.145.558-.082.349-.171.7-.268,1.041-.126.442-.268.877-.413,1.312-.112.323-.219.654-.342.974-.178.468-.372.926-.587,1.383-.119.268-.227.539-.372.8q-.509,1.026-1.115,2.007c-.138.227-.294.442-.439.669-.283.439-.569.874-.877,1.3-.19.26-.394.509-.595.766-.29.372-.587.743-.9,1.082-.219.249-.442.494-.673.743-.323.342-.658.673-1,1-.227.219-.457.439-.7.647-.39.346-.8.677-1.212,1-.208.164-.409.335-.624.491q-.941.7-1.944,1.312c-.126.074-.26.138-.372.212-.558.331-1.115.639-1.714.929-.249.123-.509.23-.766.346-.479.216-.963.424-1.457.613-.286.108-.58.208-.874.309-.487.167-.981.32-1.487.457-.3.082-.591.164-.892.234-.543.13-1.1.238-1.654.331a.189.189,0,0,0-.108.022q.55,9.828.978,19.668a26.5,26.5,0,0,1,36.8-11.5l-4.687,12.843,9.643-9.26a26.445,26.445,0,0,1,8.55,18.311,25.955,25.955,0,0,1-.673,7.3,26.508,26.508,0,0,1-48.759,7.223c0,.665.048,1.334.067,2,.175,6.884.394,15.449-3.037,23.1-2.323,5.186-6.067,9.4-9.765,13.17-2.405,2.457-4.9,4.832-7.457,7.133a26.519,26.519,0,0,1-9.576,7.962q-6.3,4.855-13.047,9.092l-2.732,1.762c-2.524,1.565-5.111,3.171-7.65,4.832.446-.045.888-.093,1.342-.112a26.53,26.53,0,0,1,26.11,17.259l-16.571,13.49,18.214-4.227a26.53,26.53,0,0,1-38.02,23.883c.409.513.821,1.022,1.23,1.531.814,1.015,1.624,2.022,2.416,3.022,10.78,13.653,13.784,26.619,8.442,36.5l-6.49-3.509c5.2-9.62-2.6-21.932-7.743-28.422-.777-.981-1.572-1.97-2.375-2.974-6.888-8.55-14.694-18.259-14.5-30.158C723.523,272.762,740.953,261.956,754.944,253.287Z" transform="translate(-500.938 -98.18)" fill="#f2f2f2"/>
    <ellipse id="Ellipse_28" data-name="Ellipse 28" cx="169.32" cy="7.806" rx="169.32" ry="7.806" transform="translate(0 245.89)" fill="#4a4a4a"/>
    <path id="Path_101" data-name="Path 101" d="M940.663,696.778c1.115-2.048-.149-4.557-1.591-6.386s-3.2-3.717-3.163-6.055c.052-3.345,3.6-5.319,6.442-7.092a31.523,31.523,0,0,0,5.78-4.65,8.469,8.469,0,0,0,1.781-2.379,9.712,9.712,0,0,0,.532-4.23q-.186-7.159-.706-14.3" transform="translate(-634.552 -445.992)" fill="none" stroke="#3f3d56" stroke-miterlimit="10" stroke-width="4"/>
    <path id="Path_102" data-name="Path 102" d="M969.986,642.588a5.227,5.227,0,0,0-2.6-4.275l-1.167,2.312.033-2.8a5.216,5.216,0,1,0,3.717,4.758Z" transform="translate(-649.407 -437.153)" fill="#57b793"/>
    <path id="Path_103" data-name="Path 103" d="M945.974,733.178a5.2,5.2,0,1,1,.249-4.2l-3.256,2.65,3.583-.833A5.2,5.2,0,0,1,945.974,733.178Z" transform="translate(-634.699 -492.429)" fill="#57b793"/>
    <path id="Path_104" data-name="Path 104" d="M946.438,701.077a5.2,5.2,0,0,1-5.449-4.97,5.129,5.129,0,0,1,.45-2.375,5.227,5.227,0,0,1,3.346-2.892l-.026,2.152,1.182-2.342h0a5.219,5.219,0,1,1,.487,10.427Z" transform="translate(-637.74 -470.473)" fill="#57b793"/>
    <path id="Path_105" data-name="Path 105" d="M980.51,678.4a5.21,5.21,0,1,1,2.3-9.747l-.922,2.528,1.9-1.821a5.2,5.2,0,0,1,1.688,3.6,5.086,5.086,0,0,1-.134,1.435,5.2,5.2,0,0,1-4.832,4Z" transform="translate(-659.147 -456.235)" fill="#57b793"/>
    <path id="Path_106" data-name="Path 106" d="M969.382,648.775c-1.2.134-2.375.509-3.583.584a3.9,3.9,0,0,1-3.3-1.156,16.512,16.512,0,0,1-.966-1.7,3.717,3.717,0,0,0-1.312-1.238,5.2,5.2,0,1,0,9.754,3.464C969.772,648.742,969.575,648.757,969.382,648.775Z" transform="translate(-649.506 -441.965)" opacity="0.1"/>
    <path id="Path_107" data-name="Path 107" d="M980.488,683.435A5.2,5.2,0,0,1,975.526,676a3.867,3.867,0,0,1,1.048,1.052,16.815,16.815,0,0,0,1.033,1.725,4.254,4.254,0,0,0,3.461,1.208c1.26-.059,2.472-.413,3.717-.528.171,0,.349-.03.524-.033A5.2,5.2,0,0,1,980.488,683.435Z" transform="translate(-659.125 -461.272)" opacity="0.1"/>
    <path id="Path_108" data-name="Path 108" d="M946.438,706.3a5.2,5.2,0,0,1-5.449-4.97,5.129,5.129,0,0,1,.45-2.375,4.284,4.284,0,0,1,1.115,1.059c.405.572.658,1.23,1.115,1.758a4.818,4.818,0,0,0,3.695,1.294c1.335-.033,2.535-.346,3.821-.442a5.226,5.226,0,0,1-4.747,3.676Z" transform="translate(-637.74 -475.691)" opacity="0.1"/>
    <path id="Path_109" data-name="Path 109" d="M945.736,738.775a5.214,5.214,0,1,1-9.512-4.275,5.41,5.41,0,0,1,1.145,1.022,20.6,20.6,0,0,0,1.4,1.859,6.492,6.492,0,0,0,4.319,1.517A22.361,22.361,0,0,0,945.736,738.775Z" transform="translate(-634.461 -498.026)" opacity="0.1"/>
    <path id="Path_110" data-name="Path 110" d="M927.54,762.887s4.115-.126,5.357-1.011,6.319-1.94,6.643-.52,6.189,7.063,1.539,7.085-10.8-.743-12.04-1.487S927.54,762.887,927.54,762.887Z" transform="translate(-629.295 -514.463)" fill="#424242"/>
    <path id="Path_111" data-name="Path 111" d="M941.16,771.684c-4.646.037-10.8-.743-12.04-1.487-.94-.573-1.32-2.636-1.442-3.587h-.137s.26,3.32,1.487,4.089,7.39,1.517,12.04,1.487c1.342,0,1.807-.491,1.781-1.2C942.673,771.409,942.16,771.677,941.16,771.684Z" transform="translate(-629.295 -518.2)" opacity="0.2"/>
    <path id="Path_112" data-name="Path 112" d="M279.264,556.331c-2.7-5,.372-11.115,3.881-15.568s7.806-9.085,7.713-14.761c-.134-8.156-8.788-12.97-15.7-17.293a76.683,76.683,0,0,1-14.1-11.334,20.593,20.593,0,0,1-4.334-5.8c-1.427-3.189-1.39-6.814-1.3-10.308q.446-17.471,1.725-34.875" transform="translate(-206.997 -317.014)" fill="none" stroke="#4a4a4a" stroke-miterlimit="10" stroke-width="4"/>
    <path id="Path_113" data-name="Path 113" d="M224.736,424.206a12.717,12.717,0,0,1,6.349-10.408l2.847,5.632-.085-6.817a12.72,12.72,0,1,1-9.111,11.605Z" transform="translate(-187.731 -295.465)" fill="#57b793"/>
    <path id="Path_114" data-name="Path 114" d="M283.405,644.957a12.713,12.713,0,0,0,24.01-5.2,12.548,12.548,0,0,0-.829-5.16,12.72,12.72,0,0,0-23.79.138l7.944,6.461L282,639.158A12.576,12.576,0,0,0,283.405,644.957Z" transform="translate(-223.717 -430.14)" fill="#57b793"/>
    <path id="Path_115" data-name="Path 115" d="M282.2,566.847a12.72,12.72,0,0,0,4.033-24.95l.067,5.238-2.862-5.7h-.033a12.721,12.721,0,0,0-1.186,25.415Z" transform="translate(-216.236 -376.72)" fill="#57b793"/>
    <path id="Path_116" data-name="Path 116" d="M199.1,511.576a12.72,12.72,0,1,0-5.62-23.79l2.23,6.159L191.1,489.5a12.661,12.661,0,0,0-4.126,8.78,12.4,12.4,0,0,0,.323,3.5,12.717,12.717,0,0,0,11.8,9.8Z" transform="translate(-164.005 -341.994)" fill="#57b793"/>
    <path id="Path_117" data-name="Path 117" d="M226.9,439.35c2.937.323,5.791,1.234,8.736,1.416s6.182-.52,8.044-2.81a39.662,39.662,0,0,0,2.353-4.141,9.025,9.025,0,0,1,3.2-3.015,12.72,12.72,0,1,1-23.79,8.442C225.944,439.264,226.428,439.3,226.9,439.35Z" transform="translate(-188.188 -307.219)" opacity="0.1"/>
    <path id="Path_118" data-name="Path 118" d="M199.694,523.89a12.728,12.728,0,0,0,12.1-18.14,9.408,9.408,0,0,0-2.557,2.557,41.223,41.223,0,0,1-2.52,4.2c-1.981,2.327-5.364,3.089-8.434,2.951s-6.033-1.015-9.089-1.294c-.424-.037-.855-.067-1.282-.078a12.717,12.717,0,0,0,11.784,9.8Z" transform="translate(-164.603 -354.308)" opacity="0.1"/>
    <path id="Path_119" data-name="Path 119" d="M283.124,579.556a12.717,12.717,0,0,0,12.2-17.906,10.285,10.285,0,0,0-2.688,2.6c-.989,1.394-1.606,3-2.762,4.286-2.145,2.39-5.751,3.234-9,3.156-3.149-.067-6.182-.84-9.312-1.082a12.728,12.728,0,0,0,11.564,8.944Z" transform="translate(-217.158 -389.429)" opacity="0.1"/>
    <path id="Path_120" data-name="Path 120" d="M285.78,658.724a12.713,12.713,0,0,0,24.01-5.2,12.549,12.549,0,0,0-.829-5.159,12.737,12.737,0,0,0-2.788,2.487c-1.208,1.487-2.007,3.145-3.4,4.52-2.6,2.55-6.8,3.606-10.535,3.717A54.567,54.567,0,0,1,285.78,658.724Z" transform="translate(-226.092 -443.906)" opacity="0.1"/>
    <path id="Path_121" data-name="Path 121" d="M273.523,565.939l-49.068,10.037-1.115-.112-43.12-4.349V516.871L233,507.95l38.288,4.461.011.242,0,.119Z" transform="translate(-113.228 -319.194)" fill="#ffc528"/>
    <path id="Path_122" data-name="Path 122" d="M346.4,573.887l-49.068,10.037-1.115-.112V527.793l47.964-7.193Z" transform="translate(-186.108 -327.142)" opacity="0.1"/>
    <path id="Path_123" data-name="Path 123" d="M271.307,512.771l-.015.011-47.952,7.063-43.12-2.974L233,507.95l38.288,4.461.011.242Z" transform="translate(-113.228 -319.194)" opacity="0.05"/>
    <path id="Path_124" data-name="Path 124" d="M418.523,571.939l-49.068,10.037-1.115-.112-43.12-4.349V522.871L378,513.95l38.288,4.461.011.242,0,.119Z" transform="translate(-204.328 -322.964)" fill="#4a4a4a"/>
    <path id="Path_125" data-name="Path 125" d="M491.4,579.887l-49.068,10.037-1.115-.112V533.793l47.964-7.193Z" transform="translate(-277.208 -330.912)" opacity="0.1"/>
    <path id="Path_126" data-name="Path 126" d="M416.307,518.771l-.015.011-47.952,7.063-43.12-2.974L378,513.95l38.288,4.461.011.242Z" transform="translate(-204.328 -322.964)" opacity="0.05"/>
    <path id="Path_127" data-name="Path 127" d="M327.523,427.939l-49.068,10.037-1.115-.112-43.12-4.349V378.871L287,369.95l38.288,4.461.011.242,0,.119Z" transform="translate(-147.155 -232.492)" fill="#4a4a4a"/>
    <path id="Path_128" data-name="Path 128" d="M400.4,435.887l-49.068,10.037-1.115-.112V389.793l47.964-7.193Z" transform="translate(-220.035 -240.44)" opacity="0.1"/>
    <path id="Path_129" data-name="Path 129" d="M325.307,374.771l-.015.011-47.952,7.063-43.12-2.974L287,369.95l38.288,4.461.011.242Z" transform="translate(-147.155 -232.492)" opacity="0.05"/>
    <path id="Path_130" data-name="Path 130" d="M477.916,480.956,452.308,486.2l-.584-.059-22.5-2.271V455.348l27.548-4.658,19.984,2.331.007.126v.059Z" transform="translate(-269.669 -283.219)" fill="#4a4a4a"/>
    <path id="Path_131" data-name="Path 131" d="M515.952,485.109l-25.608,5.241-.584-.059V461.054L514.8,457.3Z" transform="translate(-307.704 -287.372)" opacity="0.1"/>
    <path id="Path_132" data-name="Path 132" d="M476.76,453.207l-.007.007L451.724,456.9l-22.5-1.554,27.548-4.658,19.984,2.331.007.126Z" transform="translate(-269.669 -283.219)" opacity="0.05"/>
    <path id="Path_133" data-name="Path 133" d="M292.916,331.956l-25.608,5.238-.584-.056-22.5-2.271V306.348l27.548-4.658,19.984,2.331.007.126v.059Z" transform="translate(-153.438 -189.606)" fill="#4a4a4a"/>
    <path id="Path_134" data-name="Path 134" d="M330.952,336.109l-25.608,5.238-.584-.056V312.054L329.8,308.3Z" transform="translate(-191.473 -193.759)" opacity="0.1"/>
    <path id="Path_135" data-name="Path 135" d="M291.76,304.207l-.007.007L266.724,307.9l-22.5-1.554,27.548-4.658,19.984,2.331.007.126Z" transform="translate(-153.438 -189.606)" opacity="0.05"/>
    <path id="Path_136" data-name="Path 136" d="M413.916,328.956l-25.608,5.238-.584-.056-22.5-2.271V303.348l27.548-4.658,19.984,2.331.007.126v.059Z" transform="translate(-229.459 -187.721)" fill="#ffc528"/>
    <path id="Path_137" data-name="Path 137" d="M451.952,333.109l-25.608,5.238-.584-.056V309.054L450.8,305.3Z" transform="translate(-267.495 -191.874)" opacity="0.1"/>
    <path id="Path_138" data-name="Path 138" d="M412.76,301.207l-.007.007L387.724,304.9l-22.5-1.554,27.548-4.658,19.984,2.331.007.126Z" transform="translate(-229.459 -187.721)" opacity="0.05"/>
    <path id="Path_139" data-name="Path 139" d="M449.916,251.956l-25.608,5.238-.584-.056-22.5-2.271V226.348l27.548-4.658,19.984,2.331.007.126v.059Z" transform="translate(-252.077 -139.344)" fill="#4a4a4a"/>
    <path id="Path_140" data-name="Path 140" d="M487.952,256.109l-25.608,5.238-.584-.056V232.054L486.8,228.3Z" transform="translate(-290.113 -143.497)" opacity="0.1"/>
    <path id="Path_141" data-name="Path 141" d="M448.76,224.207l-.007.007L423.724,227.9l-22.5-1.554,27.548-4.658,19.984,2.331.007.126Z" transform="translate(-252.077 -139.344)" opacity="0.05"/>
    <path id="Path_142" data-name="Path 142" d="M699.117,231.665c-.271,2.416-2.115,4.364-2.8,6.691-1.026,3.513.743,7.286,3.182,10.037a22.218,22.218,0,0,0,15.471,7.338,6.657,6.657,0,0,0,2.557-.279,5.554,5.554,0,0,0,1.944-1.331,12.431,12.431,0,0,0,3.2-6.955,37.2,37.2,0,0,0,.089-7.773,4.4,4.4,0,0,0-.29-1.569,3.985,3.985,0,0,0-1.007-1.238,23.422,23.422,0,0,0-4.331-3.149,4.863,4.863,0,0,1-1.814-1.387,4.539,4.539,0,0,1-.561-1.662l-.479-2.439a4.781,4.781,0,0,0-.7-1.978c-.844-1.138-2.461-1.294-3.877-1.349l-5.2-.2c-1.617-.063-3.743-.528-5.323-.208-1.487.294-.985,1.654-.717,2.888A20.885,20.885,0,0,1,699.117,231.665Z" transform="translate(-483.836 -177.355)" fill="#ffc0c6"/>
    <path id="Path_143" data-name="Path 143" d="M699.117,231.665c-.271,2.416-2.115,4.364-2.8,6.691-1.026,3.513.743,7.286,3.182,10.037a22.218,22.218,0,0,0,15.471,7.338,6.657,6.657,0,0,0,2.557-.279,5.554,5.554,0,0,0,1.944-1.331,12.431,12.431,0,0,0,3.2-6.955,37.2,37.2,0,0,0,.089-7.773,4.4,4.4,0,0,0-.29-1.569,3.985,3.985,0,0,0-1.007-1.238,23.422,23.422,0,0,0-4.331-3.149,4.863,4.863,0,0,1-1.814-1.387,4.539,4.539,0,0,1-.561-1.662l-.479-2.439a4.781,4.781,0,0,0-.7-1.978c-.844-1.138-2.461-1.294-3.877-1.349l-5.2-.2c-1.617-.063-3.743-.528-5.323-.208-1.487.294-.985,1.654-.717,2.888A20.885,20.885,0,0,1,699.117,231.665Z" transform="translate(-483.836 -177.355)" opacity="0.1"/>
    <path id="Path_144" data-name="Path 144" d="M747.62,516.978l-2.208,24.207c-.576,6.349-1.164,12.724-2.294,18.991-.372,2.16-.848,4.308-1.39,6.438-1.509,5.914-3.7,11.695-4.4,17.757-.022.175-.041.372-.059.532a15.928,15.928,0,0,1-.743,3.94c-.372.926-.9,1.769-1.279,2.684a17.589,17.589,0,0,0-.955,5.832,25.145,25.145,0,0,0-8.658-2.974c-1.487-.219-3.1-.372-4.089-1.487-1.115-1.212-.985-3.067-.8-4.695q.877-7.583,1.747-15.159a39.509,39.509,0,0,1,1.115-6.438c.2-.7.442-1.394.688-2.085.338-.952.68-1.9.937-2.881a34.7,34.7,0,0,0,.736-4.769c.6-5.085,1.32-10.159,1.952-15.241l.033-.268a155.859,155.859,0,0,0,1.461-23.2c-.03-1.149-.078-2.3-.152-3.45-.1-1.669-.256-2.554,1.115-3.6a26,26,0,0,1,5.286-2.714c.94-.409,11.3-4.089,11.523-3.279a20.179,20.179,0,0,1,.743,5.286A58.839,58.839,0,0,1,747.62,516.978Z" transform="translate(-499.29 -353.842)" fill="#4a4a4a"/>
    <path id="Path_145" data-name="Path 145" d="M749.265,621.623c-.372,2.16-.847,4.308-1.39,6.438-1.509,5.914-3.7,11.694-4.4,17.757-.022.175-.041.372-.06.531-4.617-6.594-8.505-13.687-13.01-20.352.338-.952.68-1.9.937-2.881a34.717,34.717,0,0,0,.773-4.8c.6-5.085,1.32-10.159,1.952-15.241l.033-.268a15.79,15.79,0,0,0,1.115,3.126c3.026,6.148,10.215,9.256,13.731,15.14Q749.116,621.352,749.265,621.623Z" transform="translate(-505.436 -415.289)" opacity="0.1"/>
    <path id="Path_146" data-name="Path 146" d="M680.335,457.4a114.328,114.328,0,0,0,1.729,14.687l1.625,10.037c.888,5.5,1.818,11.111,4.42,16.036,1.948,3.688,4.751,6.832,7.289,10.137,6.237,8.126,10.925,17.334,16.839,25.7,1.721,2.431,4.178,5.063,7.111,4.554,1.926-.331,3.323-1.937,4.832-3.171,1.784-1.457,3.933-2.524,5.338-4.353s1.68-4.862-.223-6.163a10.268,10.268,0,0,0-2.178-.892c-2.948-1.115-4.858-4-6.07-6.914s-1.952-6.041-3.568-8.75c-3.517-5.884-10.709-8.992-13.735-15.144-1.7-3.442-1.859-7.434-1.985-11.252l-.331-9.78a7.124,7.124,0,0,1,.372-3.16c1.156-2.6,4.65-2.847,7.483-3.178a25.558,25.558,0,0,0,9.171-2.892,9.511,9.511,0,0,0,4.089-3.639,11.692,11.692,0,0,0,1-4.925l.981-17.728a11.179,11.179,0,0,0-.372-4.531c-1.349-3.591-5.884-4.766-9.717-4.595-7.13.32-13.709,3.386-20.445,5.461a52.258,52.258,0,0,1-5.067,1.32c-1.487.3-3.346.178-4.773.662-2.557.862-2.494,6.461-2.855,8.78a73.712,73.712,0,0,0-.955,13.7Z" transform="translate(-473.969 -305.125)" fill="#4a4a4a"/>
    <path id="Path_147" data-name="Path 147" d="M780.321,708.95a4.545,4.545,0,0,1,1,2.442,83.324,83.324,0,0,1,1.413,14.761,2.446,2.446,0,0,0,.264,1.338,1.706,1.706,0,0,0,.7.558c1.818.866,3.925-.342,5.442-1.669,2.806-2.457,5.182-5.758,5.342-9.486a21.825,21.825,0,0,1,.1-2.877,11.97,11.97,0,0,1,1.788-3.855,32.733,32.733,0,0,0,2.974-6.624c.275-.87.461-1.963-.223-2.569a2.391,2.391,0,0,0-.807-.42L790.09,697.5c-.714-.264-2.483,4.282-2.762,4.78a3.763,3.763,0,0,1-2.751,2.186c-1.379.282-3.082-.126-4.4.576C777.949,706.229,779.06,707.683,780.321,708.95Z" transform="translate(-535.908 -474.774)" fill="#424242"/>
    <path id="Path_148" data-name="Path 148" d="M732.858,733.476a2.5,2.5,0,0,0-.624-.792,2.8,2.8,0,0,0-1.26-.427c-1.561-.268-3.412-.442-4.494.721-1.011,1.089-.836,2.862-1.68,4.089a12.713,12.713,0,0,0-.862,1.115,4.185,4.185,0,0,0-.372,2c-.045,1.892-.089,3.792.045,5.68a7.926,7.926,0,0,0,1.364,4.487c1.591,1.992,4.461,2.279,7,2.405l2.063.108a4.089,4.089,0,0,0,1.688-.156,2.769,2.769,0,0,0,1.457-1.6c1.074-2.669-.624-5.542-1.673-8.219C734.3,739.8,734.519,736.387,732.858,733.476Z" transform="translate(-501.114 -496.493)" fill="#424242"/>
    <path id="Path_149" data-name="Path 149" d="M690.817,183.063a1.684,1.684,0,0,1,.115-.8c.3-.532,1.089-.372,1.684-.238,2.39.6,4.911.056,7.375.2s5.238,1.372,5.732,3.788a17.922,17.922,0,0,0,4.546-4.669,5.6,5.6,0,0,0,1.186-3.42c-.134-1.769-1.617-3.093-2.974-4.215l-4.089-3.346a6.211,6.211,0,0,0-1.836-1.167,9.136,9.136,0,0,0-2.974-.167c-2.974,0-6.163-1.357-8.814,0a9.408,9.408,0,0,0-2.747,2.5l-3.654,4.327a2.308,2.308,0,0,0-.587.993,4.368,4.368,0,0,0,.264,1.58c.171.966-.245,2,.074,2.929.532,1.539,2.405,1.758,3.55,2.643.424.327,1.093,1.446,1.6,1.431C690.167,185.413,690.791,183.777,690.817,183.063Z" transform="translate(-476.132 -142.377)" fill="#3f3d56"/>
    <circle id="Ellipse_29" data-name="Ellipse 29" cx="11.709" cy="11.709" r="11.709" transform="translate(209.177 30.029)" fill="#ffc0c6"/>
    <path id="Path_150" data-name="Path 150" d="M679.18,258.26a5.673,5.673,0,0,0-5.505-3.8,1.654,1.654,0,0,1-1.019-.13,1.408,1.408,0,0,1-.42-.52,20.721,20.721,0,0,1-1.706-4.037c-.186-.621-.442-1.353-1.071-1.513a1.437,1.437,0,0,0-1.36.595,13.031,13.031,0,0,1-.974,1.223c-1.487,1.316-4.089.115-5.647,1.323-.257.2-.468.45-.743.632a3.384,3.384,0,0,1-.859.372A82.3,82.3,0,0,0,651,255.873c1.041,6.26,2.1,12.639,4.542,18.493,1.16,2.788,2.472,5.52,3.4,8.393,2.059,6.368,2.149,13.181,2.175,19.876,0,4.58,0,9.256-1.487,13.59a13.149,13.149,0,0,0-.836,2.974,3.093,3.093,0,0,0,1.048,2.78,3.535,3.535,0,0,0,1.617.569c2.569.372,5.156-.3,7.684-.892a206.8,206.8,0,0,1,20.586-3.345l11.561-1.487a6.762,6.762,0,0,0,2.394-.621c2.115-1.156,2.316-4.338,1-6.36-.628-.97-1.517-1.766-2.048-2.792a2.593,2.593,0,0,1,.338-3.178c1.859-1.45,1.3-4.137,1.39-6.487q.372-9.858-.1-19.7a38.56,38.56,0,0,1-.067-4.089,36.078,36.078,0,0,1,1.275-6.825l3.513-13.828a7.21,7.21,0,0,0-4.338-2.788c-1.662-.416-3.4-.539-5.037-1.048-3.346-1.041-6.349-3.68-9.854-3.435a1.8,1.8,0,0,0-.766.186c-.788.45-.665,1.587-.714,2.494-.111,2.011-1.591,3.688-3.219,4.866a58.143,58.143,0,0,0-4.992,3.375,2.23,2.23,0,0,0-.885,1.665Z" transform="translate(-455.551 -190.898)" fill="#ffc528"/>
    <path id="Path_151" data-name="Path 151" d="M591.481,307.485a13.754,13.754,0,0,1-2.461,1.268,8.18,8.18,0,0,0-2.361,1.145,3.737,3.737,0,0,0-.821,1.015,4.509,4.509,0,0,0,4.156,6.717,9.061,9.061,0,0,0,3.074-.918l8.26-3.595c1.4-.606,2.907-1.312,3.568-2.688a.646.646,0,0,0,.082-.427.7.7,0,0,0-.342-.372,18.5,18.5,0,0,1-4.806-4.535c-.338-.461-.743-1.546-1.234-1.825C596.849,302.3,592.882,306.578,591.481,307.485Z" transform="translate(-414.247 -227.005)" fill="#ffc0c6"/>
    <path id="Path_152" data-name="Path 152" d="M806.2,307l3.044,3.479c.654.743,1.308,1.487,1.9,2.29a26.644,26.644,0,0,1,3.487,6.568,11.484,11.484,0,0,1,.981,5.431,13.377,13.377,0,0,1-.762,2.762,34.141,34.141,0,0,1-2.07,4.981,28.339,28.339,0,0,1-2.316,3.483,81.437,81.437,0,0,1-7.721,8.828,9.931,9.931,0,0,0-1.929,4.089c-.836,2.569-2.825,4.572-4.747,6.468a13.077,13.077,0,0,1-2.041,1.755,6.617,6.617,0,0,1-3.717,1.056,4.089,4.089,0,0,1-1.669-.346,4.317,4.317,0,0,1-2.123-3.595,7.7,7.7,0,0,1,.639-3.851c1.747-3.87,6.234-5.546,9.4-8.371a30.692,30.692,0,0,0,4.687-5.792,20.089,20.089,0,0,0,2.368-4.152c.706-1.892.431-4.13,1.052-6.048.26-.814.744-1.546,1.007-2.353a2.787,2.787,0,0,0-.141-2.457,3.55,3.55,0,0,0-1.379-1.011c-2.026-1.026-4.293-2.349-4.68-4.591a4.914,4.914,0,0,1,.907-3.505,14.5,14.5,0,0,1,2.554-2.676C803.825,308.647,805.316,307.766,806.2,307Z" transform="translate(-540.678 -229.438)" fill="#ffc0c6"/>
    <path id="Path_153" data-name="Path 153" d="M572.958,322.708a5.634,5.634,0,0,0-2.294-2.732,4.223,4.223,0,0,0-3.346,0,12.682,12.682,0,0,0-2.929,1.769l-2.624,1.937a6.456,6.456,0,0,0-1.558,1.439,5.989,5.989,0,0,0-.81,2.23,16.2,16.2,0,0,0-.413,5.505c.416,2.974,2.2,5.546,4.163,7.806,1.227,1.405,2.743,2.825,4.609,2.888a2.115,2.115,0,0,0,2.037-1.026,2.54,2.54,0,0,0,.182-.914c.2-3.3-.981-6.524-2.357-9.531a5.9,5.9,0,0,1-.743-2.561.692.692,0,0,1,.112-.431.721.721,0,0,1,.446-.219c1.885-.372,5.134,1.093,6.453-1C574.742,326.485,573.568,323.939,572.958,322.708Z" transform="translate(-397.679 -237.374)" fill="#ffc0c6"/>
    <path id="Path_154" data-name="Path 154" d="M689.17,173.153a1.733,1.733,0,0,1,.119-.8c.3-.535,1.089-.372,1.684-.238,2.39.6,4.911.056,7.375.2s5.234,1.372,5.732,3.788a18.039,18.039,0,0,0,4.546-4.669,5.619,5.619,0,0,0,1.186-3.424c-.134-1.769-1.621-3.093-2.974-4.212l-4.089-3.346a6.193,6.193,0,0,0-1.833-1.167,9.143,9.143,0,0,0-2.974-.167c-2.974,0-6.163-1.357-8.814,0a9.407,9.407,0,0,0-2.747,2.5l-3.658,4.327a2.316,2.316,0,0,0-.584.993,4.368,4.368,0,0,0,.264,1.58c.171.966-.245,2,.074,2.925.532,1.543,2.405,1.762,3.55,2.647.424.327,1.093,1.446,1.6,1.431C688.512,175.5,689.136,173.867,689.17,173.153Z" transform="translate(-475.101 -136.15)" fill="#424242"/>
    <path id="Path_155" data-name="Path 155" d="M623.6,277.633a4.855,4.855,0,0,0-1.227,1.141c-.427.651-.517,1.487-.885,2.156-.788,1.465-2.635,1.989-3.784,3.189a1.187,1.187,0,0,0-.372.625,1.38,1.38,0,0,0,.308.9l5.554,8.728c1.859.164,3.621-1,5.472-.84a5.519,5.519,0,0,0,2.059.089,5.985,5.985,0,0,0,1.32-.807c1.115-.7,2.572-.781,3.5-1.7a4.678,4.678,0,0,0,.992-3.52,13.89,13.89,0,0,0-.331-3.234c-.818-3.346-3.379-5.925-4.985-8.892-.784-1.446-1.208-2.29-2.862-1.3S625.162,276.488,623.6,277.633Z" transform="translate(-434.397 -208.542)" fill="#ffc528"/>
    <path id="Path_156" data-name="Path 156" d="M799.487,267.355a13.036,13.036,0,0,1,2.8,2.446c.844,1.089,1.323,2.427,2.137,3.543a38.686,38.686,0,0,0,2.751,2.914,22.215,22.215,0,0,1,3.174,5.171,77.54,77.54,0,0,1-7.182,8.1,2.3,2.3,0,0,1-1.093.714,1.751,1.751,0,0,1-1.539-.628c-.4-.416-.684-.937-1.067-1.372a5.483,5.483,0,0,0-3.394-1.639,23.308,23.308,0,0,0-3.847-.056,1.487,1.487,0,0,1-.822-.138,1.357,1.357,0,0,1-.446-.513c-1.487-2.557-1.022-5.769-.491-8.691l1.216-6.691A15.03,15.03,0,0,1,792.7,266.8c.461-.985,1.487-2.658,2.758-2.36S798.413,266.582,799.487,267.355Z" transform="translate(-542.852 -202.678)" fill="#ffc528"/>
    <path id="Path_157" data-name="Path 157" d="M322.916,254.956l-25.608,5.238-.584-.056-22.5-2.271V229.348l27.548-4.658,19.984,2.331.007.126v.059Z" transform="translate(-172.286 -141.229)" fill="#ffc528"/>
    <path id="Path_158" data-name="Path 158" d="M360.952,259.109l-25.608,5.238-.584-.056V235.054L359.8,231.3Z" transform="translate(-210.322 -145.382)" opacity="0.1"/>
    <path id="Path_159" data-name="Path 159" d="M321.76,227.207l-.007.007L296.724,230.9l-22.5-1.554,27.548-4.658,19.984,2.331.007.126Z" transform="translate(-172.286 -141.229)" opacity="0.05"/>
    <path id="Path_160" data-name="Path 160" d="M358.916,178.956,333.308,184.2l-.584-.059-22.5-2.271V153.348l27.548-4.658,19.984,2.331.007.126v.059Z" transform="translate(-194.904 -93.48)" fill="#4a4a4a"/>
    <path id="Path_161" data-name="Path 161" d="M396.952,183.109l-25.608,5.241-.584-.059V159.054L395.8,155.3Z" transform="translate(-232.94 -97.633)" opacity="0.1"/>
    <path id="Path_162" data-name="Path 162" d="M357.76,151.207l-.007.007L332.724,154.9l-22.5-1.554,27.548-4.658,19.984,2.331.007.126Z" transform="translate(-194.904 -93.48)" opacity="0.05"/>
  </g>
</svg>
