<svg id="undraw_Questions_re_1fy7" xmlns="http://www.w3.org/2000/svg" width="241.529" height="170.211" viewBox="0 0 241.529 170.211">
  <circle id="Ellipse_14" data-name="Ellipse 14" cx="13.153" cy="13.153" r="13.153" transform="translate(110.201 143.543)" fill="#ffc528"/>
  <path id="Path_69" data-name="Path 69" d="M467.891,354.967c7.359-2.21,15.182-4.514,21.018-9.768,5.215-4.695,8.736-11.863,6.575-18.9s-8.614-11.711-15.281-14.041a62.692,62.692,0,0,0-11.693-2.631c-4.3-.626-8.617-1.139-12.933-1.633q-26.214-3-52.626-3.663c-8.688-.219-17.375-.214-26.064-.087-7.76.113-15.933.11-23.133-3.188-5.6-2.565-10.679-7.231-12.239-13.363-1.8-7.078,1.521-14.287,6.285-19.413a50.889,50.889,0,0,1,8.474-7.068c3.285-2.269,6.684-4.377,10.157-6.345a141.44,141.44,0,0,1,21.379-9.856c3.645-1.325,7.343-2.468,11.074-3.523a94.761,94.761,0,0,0,9.355-3c5.886-2.346,11.484-6.319,12.98-12.834,1.418-6.174-.973-12.876-5.166-17.463-4.85-5.306-12.164-7.632-19.175-8.009-7.872-.423-15.562,1.548-22.96,4.048-7.891,2.667-15.612,5.733-23.67,7.893a159.257,159.257,0,0,1-24.361,4.528,66.079,66.079,0,0,1-12.226.585,14.783,14.783,0,0,1-9.274-3.683,9.172,9.172,0,0,1-2.984-7.9c.08-.544.907-.313.827.228-.535,3.647,1.944,7.008,5,8.73,3.531,1.99,7.827,1.992,11.758,1.765a153.788,153.788,0,0,0,25.31-3.659,203.4,203.4,0,0,0,23.935-7.388c7.479-2.708,15.125-5.352,23.116-5.938,6.933-.509,14.226.5,20.266,4.124A22.419,22.419,0,0,1,422.069,218.1a16.909,16.909,0,0,1-4.975,16.1c-4.667,4.3-11.066,6.142-17.03,7.836a156.026,156.026,0,0,0-22.13,7.922,138.923,138.923,0,0,0-20.817,11.7c-6.361,4.347-12.639,9.817-14.651,17.572a16.188,16.188,0,0,0,.8,10.856,19.838,19.838,0,0,0,6.366,7.554c6.382,4.7,14.427,5.661,22.136,5.757,8.659.108,17.318-.185,25.979-.042q26.478.435,52.848,3.223,6.608.7,13.2,1.546a119.336,119.336,0,0,1,11.8,1.914c6.909,1.6,13.632,4.687,17.926,10.545a16.675,16.675,0,0,1,1.42,18.234c-3.3,6.488-9.474,10.615-16.034,13.326a113.764,113.764,0,0,1-10.795,3.645.429.429,0,0,1-.228-.827Z" transform="translate(-265.958 -185.856)" fill="#f2f2f2"/>
  <circle id="Ellipse_15" data-name="Ellipse 15" cx="6.863" cy="6.863" r="6.863" transform="translate(29.136 13.01)" fill="#f2f2f2"/>
  <circle id="Ellipse_16" data-name="Ellipse 16" cx="6.863" cy="6.863" r="6.863" transform="translate(76.745 26.021)" fill="#f2f2f2"/>
  <circle id="Ellipse_17" data-name="Ellipse 17" cx="6.863" cy="6.863" r="6.863" transform="translate(117.063)" fill="#f2f2f2"/>
  <circle id="Ellipse_18" data-name="Ellipse 18" cx="6.863" cy="6.863" r="6.863" transform="translate(142.226 29.166)" fill="#f2f2f2"/>
  <circle id="Ellipse_19" data-name="Ellipse 19" cx="6.863" cy="6.863" r="6.863" transform="translate(108.199 62.907)" fill="#f2f2f2"/>
  <circle id="Ellipse_20" data-name="Ellipse 20" cx="6.863" cy="6.863" r="6.863" transform="translate(65.021 79.206)" fill="#f2f2f2"/>
  <circle id="Ellipse_21" data-name="Ellipse 21" cx="6.863" cy="6.863" r="6.863" transform="translate(110.772 104.655)" fill="#f2f2f2"/>
  <circle id="Ellipse_22" data-name="Ellipse 22" cx="6.863" cy="6.863" r="6.863" transform="translate(159.955 118.952)" fill="#f2f2f2"/>
  <circle id="Ellipse_23" data-name="Ellipse 23" cx="6.863" cy="6.863" r="6.863" transform="translate(217.429 115.807)" fill="#f2f2f2"/>
  <path id="Path_70" data-name="Path 70" d="M510.022,220.371a38.064,38.064,0,0,0-37.681,37.406c0,.19,0,1.524,0,3.27a9.65,9.65,0,0,0,9.648,9.649h0a9.655,9.655,0,0,0,9.654-9.662c0-1.189,0-2.011,0-2.062a18.3,18.3,0,1,1,28.171,15.406l0,0s-13.733,8.841-17.92,20.97h0a26.88,26.88,0,0,0-1.108,7.654c0,1.065.063,10.386.184,17.951a9.947,9.947,0,0,0,9.948,9.786h0a9.95,9.95,0,0,0,9.949-10.011c-.042-6.928-.065-15-.065-15.581,0-7.447,7.184-14.868,13.086-19.706a39.69,39.69,0,0,0,13.65-21.731,24.808,24.808,0,0,0,.715-5.385,37.959,37.959,0,0,0-38.233-37.958Z" transform="translate(-388.077 -200.925)" fill="#ffc528"/>
  <path id="Path_71" data-name="Path 71" d="M418.852,745.931H178a.34.34,0,0,1,0-.681H418.851a.34.34,0,1,1,0,.681Z" transform="translate(-177.662 -575.72)" fill="#3d3d3d"/>
  <circle id="Ellipse_24" data-name="Ellipse 24" cx="8.578" cy="8.578" r="8.578" transform="translate(171.122 60.905)" fill="#3d3d3d"/>
  <path id="Path_72" data-name="Path 72" d="M560.093,548.363h-3.505l-1.668-13.522h5.174Z" transform="translate(-396.244 -381.907)" fill="#ffb8b8"/>
  <path id="Path_73" data-name="Path 73" d="M541.366,578.626h6.761v4.257H537.109A4.257,4.257,0,0,1,541.366,578.626Z" transform="translate(-383.526 -413.172)" fill="#4a4a4a"/>
  <path id="Path_74" data-name="Path 74" d="M655.093,548.363h-3.505l-1.668-13.522h5.174Z" transform="translate(-464.08 -381.907)" fill="#ffb8b8"/>
  <path id="Path_75" data-name="Path 75" d="M636.366,578.626h6.761v4.257H632.109A4.257,4.257,0,0,1,636.366,578.626Z" transform="translate(-451.362 -413.172)" fill="#4a4a4a"/>
  <circle id="Ellipse_25" data-name="Ellipse 25" cx="7.023" cy="7.023" r="7.023" transform="translate(171.374 64.065)" fill="#ffb8b8"/>
  <path id="Path_76" data-name="Path 76" d="M753.486,454.727l3.142-7.22a8.974,8.974,0,0,0-1.987-10.18,9.128,9.128,0,0,0-.878-.763,8.845,8.845,0,0,0-5.43-1.879,9.2,9.2,0,0,0-3.832.852c-.1.046-.2.094-.306.143-.2.094-.392.2-.58.3a9.058,9.058,0,0,0-4.489,6.828l-1.387,11.621c-.349.912-12.793,33.853-8.441,59a1.277,1.277,0,0,0,1.092,1.049l4.412.6a1.286,1.286,0,0,0,1.432-1.009l7.4-35.288a1,1,0,0,1,1.944-.066l10.46,37.11a1.278,1.278,0,0,0,1.232.938,1.467,1.467,0,0,0,.249-.023l5.39-1.038a1.279,1.279,0,0,0,1.038-1.375C763.159,505.5,758.95,461.255,753.486,454.727Z" transform="translate(-570.903 -353.959)" fill="#4a4a4a"/>
  <path id="Path_77" data-name="Path 77" d="M706.054,414.99a2.875,2.875,0,0,0,3.029,3.2l3.926,9.434,2.969-4.4-4.183-8.284a2.891,2.891,0,0,0-5.741.048Z" transform="translate(-554.95 -338.057)" fill="#ffb8b8"/>
  <path id="Path_78" data-name="Path 78" d="M792.067,509.1a2.875,2.875,0,0,0,2.409-3.693l8.26-6.016-4.973-1.862-7.081,6a2.891,2.891,0,0,0,1.385,5.572Z" transform="translate(-614.059 -398.835)" fill="#ffb8b8"/>
  <path id="Path_79" data-name="Path 79" d="M727.752,452.464a4.875,4.875,0,0,1-.943-.093,4.662,4.662,0,0,1-3.416-2.75l-5.5-6.706a1.287,1.287,0,0,1,.318-1.91l3.913-2.422a1.287,1.287,0,0,1,1.777.426l3.876,6.386,7.423-5.486a2.78,2.78,0,0,1,3.234,4.45l-7.409,6.759A4.648,4.648,0,0,1,727.752,452.464Z" transform="translate(-563.209 -356.604)" fill="#4a4a4a"/>
  <path id="Path_80" data-name="Path 80" d="M811.351,467.787h-.03a1.289,1.289,0,0,1-.947-.449l-3.479-4.058a1.287,1.287,0,0,1,.263-1.908l6.514-4.343-5.9-7.095a2.78,2.78,0,0,1,4.257-3.484l7.172,7.009a4.725,4.725,0,0,1-1.051,7.7l-5.862,6.22A1.289,1.289,0,0,1,811.351,467.787Z" transform="translate(-626.749 -361.841)" fill="#4a4a4a"/>
  <path id="Path_81" data-name="Path 81" d="M785.605,443.165a1.328,1.328,0,0,1-.167-.011,1.276,1.276,0,0,1-1.061-.878l-2.614-8.015a.881.881,0,0,1,.456-1.065l.085-.04c.077-.037.153-.073.231-.107a9.315,9.315,0,0,1,3.89-.864,8.957,8.957,0,0,1,4.907,1.475.9.9,0,0,1,.258,1.228l-4.9,7.683A1.274,1.274,0,0,1,785.605,443.165Z" transform="translate(-608.994 -352.174)" fill="#e6e6e6"/>
  <circle id="Ellipse_26" data-name="Ellipse 26" cx="2.807" cy="2.807" r="2.807" transform="translate(183.657 60.039)" fill="#3d3d3d"/>
  <path id="Path_82" data-name="Path 82" d="M777.546,361.365h0a7.434,7.434,0,0,0-7.434,7.434v3.145h3.869l1.85-3.145.555,3.145h11.74L784.98,368.8a7.434,7.434,0,0,0-7.434-7.434Z" transform="translate(-600.704 -301.604)" fill="#3d3d3d"/>
  <path id="Path_83" data-name="Path 83" d="M834.809,357.908a4.332,4.332,0,0,1,4.713-2.973,6,6,0,0,1,4.046,3.343,32.931,32.931,0,0,1,1.8,5.126,9.284,9.284,0,0,0,2.8,4.571,4.167,4.167,0,0,0,5.03.271,5.753,5.753,0,0,1-10.716,2.053,12.443,12.443,0,0,1-1.152-4.361,9.53,9.53,0,0,0-1.39-4.272,3.534,3.534,0,0,0-3.947-1.469Z" transform="translate(-646.902 -296.984)" fill="#3d3d3d"/>
  <path id="Path_84" data-name="Path 84" d="M484.373,305.368h0a9.65,9.65,0,0,1-9.649-9.648c0-1.746,0-3.081,0-3.271a37.6,37.6,0,0,1,4.392-17.13,37.688,37.688,0,0,0-7.251,21.706c0,.19,0,1.524,0,3.27a9.65,9.65,0,0,0,9.648,9.649h0a9.657,9.657,0,0,0,9.29-7.032A9.614,9.614,0,0,1,484.373,305.368Z" transform="translate(-387.74 -240.162)" fill="#4a4a4a"/>
  <path id="Path_85" data-name="Path 85" d="M569.451,280a18.3,18.3,0,0,1,15.915,25.567,18.3,18.3,0,1,0-30.718-19.154A18.263,18.263,0,0,1,569.451,280Z" transform="translate(-446.852 -240.224)" fill="#4a4a4a"/>
  <path id="Path_86" data-name="Path 86" d="M584.356,492.959h0a9.948,9.948,0,0,1-9.948-9.788c-.121-7.563-.184-16.883-.184-17.949a26.876,26.876,0,0,1,1.108-7.654h0a27.166,27.166,0,0,1,1.571-3.632,31.465,31.465,0,0,0-4.43,8.207h0a26.882,26.882,0,0,0-1.108,7.654c0,1.065.063,10.386.184,17.951a9.947,9.947,0,0,0,9.948,9.786h0a9.951,9.951,0,0,0,9.551-7.161A9.911,9.911,0,0,1,584.356,492.959Z" transform="translate(-458.788 -367.705)" fill="#4a4a4a"/>
  <path id="Path_87" data-name="Path 87" d="M126.539,548.818h3.505l1.668-13.522h-5.174Z" transform="translate(-90.355 -382.232)" fill="#ffb8b8"/>
  <path id="Path_88" data-name="Path 88" d="M0,0H11.018V4.257H4.257A4.257,4.257,0,0,1,0,0Z" transform="translate(46.449 169.841) rotate(179.997)" fill="#4a4a4a"/>
  <path id="Path_89" data-name="Path 89" d="M82.539,548.818h3.505L87.712,535.3H82.538Z" transform="translate(-58.937 -382.232)" fill="#ffb8b8"/>
  <path id="Path_90" data-name="Path 90" d="M0,0H11.018V4.257H4.257A4.257,4.257,0,0,1,0,0Z" transform="translate(33.868 169.841) rotate(179.997)" fill="#4a4a4a"/>
  <path id="Path_91" data-name="Path 91" d="M259.2,603.261l-3.424-.18a1.336,1.336,0,0,1-1.263-1.42l4.093-45.312,18.847,5.086,1.816-.5-5.678,40.114a1.343,1.343,0,0,1-1.246,1.128l-3.691.172a1.337,1.337,0,0,1-1.41-1.371l.669-24.075a.446.446,0,0,0-.882-.1l-6.45,25.4a1.328,1.328,0,0,1-1.306,1.065Z" transform="translate(-232.539 -440.833)" fill="#4a4a4a"/>
  <circle id="Ellipse_27" data-name="Ellipse 27" cx="7.023" cy="7.023" r="7.023" transform="translate(29.79 64.394)" fill="#ffb8b8"/>
  <path id="Path_92" data-name="Path 92" d="M265.481,446.5l.772,16.661.279,6.062a1.327,1.327,0,0,0,.879,1.194l18.11,6.56a1.279,1.279,0,0,0,.457.08,1.328,1.328,0,0,0,1.334-1.369l-.742-29.957a10.56,10.56,0,0,0-8.791-10.2c-.175-.027-.353-.053-.532-.077a10.365,10.365,0,0,0-8.34,2.7,10.647,10.647,0,0,0-3.427,8.348Z" transform="translate(-240.361 -354.45)" fill="#ccc"/>
  <path id="Path_93" data-name="Path 93" d="M346.685,537.16a2.878,2.878,0,0,1-1.535-4.354l-6.141-8.167,5.3-.328,5.02,7.805a2.891,2.891,0,0,1-2.643,5.043Z" transform="translate(-292.873 -417.957)" fill="#ffb8b8"/>
  <path id="Path_94" data-name="Path 94" d="M325.137,479.656a1.328,1.328,0,0,1-.727-.72l-9.253-22.045a3.564,3.564,0,1,1,6.572-2.758l9.253,22.045a1.338,1.338,0,0,1-.715,1.749l-4.108,1.724a1.327,1.327,0,0,1-1.023,0Z" transform="translate(-275.643 -366.285)" fill="#ccc"/>
  <path id="Path_95" data-name="Path 95" d="M298.113,501.77,307,484.754a1.4,1.4,0,0,1,1.88-.59l12.9,6.737a1.4,1.4,0,0,1,.59,1.88L313.483,509.8a1.4,1.4,0,0,1-1.88.59l-12.9-6.737A1.4,1.4,0,0,1,298.113,501.77Z" transform="translate(-263.558 -389.177)" fill="#3d3d3d"/>
  <path id="Path_96" data-name="Path 96" d="M286.971,501.653a2.878,2.878,0,0,0-4.437-1.275l-8.515-5.649-.014,5.31,8.088,4.55a2.891,2.891,0,0,0,4.878-2.936Z" transform="translate(-246.456 -396.833)" fill="#ffb8b8"/>
  <path id="Path_97" data-name="Path 97" d="M255.969,466.655l-6.959-5.512a4.908,4.908,0,0,1-2.237-7.759l6.319-8.281a2.887,2.887,0,0,1,4.9,2.941l-5,8.178,7.347,3.485a1.336,1.336,0,0,1,.557,1.921l-2.966,4.693a1.339,1.339,0,0,1-.905.6l-.022,0A1.343,1.343,0,0,1,255.969,466.655Z" transform="translate(-226.219 -360.641)" fill="#ccc"/>
  <path id="Path_98" data-name="Path 98" d="M279.223,382.127a.61.61,0,0,1,.531-.806,1.41,1.41,0,0,1,.994.49,3.957,3.957,0,0,0,.878.754.756.756,0,0,0,.994-.18,1.383,1.383,0,0,0-.053-1.073,10.55,10.55,0,0,1-.466-2.794,4.919,4.919,0,0,1,.7-2.988,3.953,3.953,0,0,1,3.387-1.44,22.765,22.765,0,0,1,3.805.674,1.278,1.278,0,0,0,1.244-.209,1.6,1.6,0,0,0,.065-1.431,9.938,9.938,0,0,0-1.506-3.589,5.4,5.4,0,0,0-3.449-1.942,8.275,8.275,0,0,0-3.849.437,10.322,10.322,0,0,0-5.056,3.522,8.36,8.36,0,0,0-1.6,6.176,7.626,7.626,0,0,0,2.827,4.819Z" transform="translate(-247.717 -306.008)" fill="#3d3d3d"/>
  <path id="Path_99" data-name="Path 99" d="M573.253,684.1a13.152,13.152,0,0,1-4.881-20.442,13.153,13.153,0,1,0,17.891,19,13.145,13.145,0,0,1-13.01,1.437Z" transform="translate(-452.797 -517.46)" fill="#4a4a4a"/>
</svg>
