<svg id="call" xmlns="http://www.w3.org/2000/svg" width="27.138" height="27.138" viewBox="0 0 27.138 27.138">
  <g id="Group_69" data-name="Group 69">
    <path id="Path_67" data-name="Path 67" d="M24.961,17.813a15.408,15.408,0,0,1-4.839-.771,2.212,2.212,0,0,0-2.151.454l-3.051,2.3a16.863,16.863,0,0,1-7.582-7.58L9.573,9.247a2.194,2.194,0,0,0,.54-2.222,15.432,15.432,0,0,1-.774-4.847A2.18,2.18,0,0,0,7.161,0H2.178A2.18,2.18,0,0,0,0,2.178a24.989,24.989,0,0,0,24.961,24.96,2.18,2.18,0,0,0,2.178-2.178v-4.97A2.18,2.18,0,0,0,24.961,17.813Z" fill="#292929"/>
  </g>
</svg>
