<svg id="call" xmlns="http://www.w3.org/2000/svg" width="19.392" height="19.392" viewBox="0 0 19.392 19.392">
  <g id="Group_69" data-name="Group 69">
    <path id="Path_67" data-name="Path 67" d="M17.836,12.729a11.01,11.01,0,0,1-3.458-.551,1.58,1.58,0,0,0-1.537.324l-2.18,1.646A12.05,12.05,0,0,1,5.243,8.731l1.6-2.124A1.567,1.567,0,0,0,7.226,5.02a11.027,11.027,0,0,1-.553-3.463A1.558,1.558,0,0,0,5.117,0H1.556A1.558,1.558,0,0,0,0,1.556,17.856,17.856,0,0,0,17.836,19.392a1.558,1.558,0,0,0,1.556-1.556V14.285A1.558,1.558,0,0,0,17.836,12.729Z" fill="#fff"/>
  </g>
</svg>
