<svg xmlns="http://www.w3.org/2000/svg" width="16.168" height="17.638" viewBox="0 0 16.168 17.638">
  <g id="copy_1_" data-name="copy (1)" transform="translate(-1)">
    <path id="Path_163" data-name="Path 163" d="M3.2,4.961A3.5,3.5,0,0,1,6.7,1.47h6.712A2.017,2.017,0,0,0,11.473,0H3.021A2.023,2.023,0,0,0,1,2.021V13.412a2.023,2.023,0,0,0,2.021,2.021H3.2Z" fill="#c7c7c7"/>
    <path id="Path_164" data-name="Path 164" d="M16.473,4H8.021A2.023,2.023,0,0,0,6,6.021V16.678A2.023,2.023,0,0,0,8.021,18.7h8.452a2.023,2.023,0,0,0,2.021-2.021V6.021A2.023,2.023,0,0,0,16.473,4ZM15,16.494H9.491a.551.551,0,1,1,0-1.1H15a.551.551,0,1,1,0,1.1Zm0-2.94H9.491a.551.551,0,1,1,0-1.1H15a.551.551,0,0,1,0,1.1Zm0-2.572H9.491a.551.551,0,1,1,0-1.1H15a.551.551,0,0,1,0,1.1Zm0-2.94H9.491a.551.551,0,1,1,0-1.1H15a.551.551,0,0,1,0,1.1Z" transform="translate(-1.325 -1.06)" fill="#c7c7c7"/>
  </g>
</svg>
