<svg xmlns="http://www.w3.org/2000/svg" width="12.406" height="12.408" viewBox="0 0 12.406 12.408">
  <path id="wallet-passes-app" d="M11.959,3.418a.485.485,0,0,0,.485-.485V2.425A2.428,2.428,0,0,0,10.018,0S2.422,0,2.4,0a2.474,2.474,0,0,0-1.7.761A2.389,2.389,0,0,0,.039,2.509c0,.012,0,6.99,0,6.99a2.913,2.913,0,0,0,2.909,2.909h7.071a2.428,2.428,0,0,0,2.425-2.425V6.3a2.428,2.428,0,0,0-2.425-2.425H2.461A1.451,1.451,0,0,1,1.008,2.494a1.428,1.428,0,0,1,.4-1.061A1.5,1.5,0,0,1,2.488.971l7.53,0a1.457,1.457,0,0,1,1.456,1.456v.509a.485.485,0,0,0,.485.485Zm-9.5,1.43h7.558A1.457,1.457,0,0,1,11.474,6.3V9.983a1.457,1.457,0,0,1-1.456,1.456H2.947A1.942,1.942,0,0,1,1.007,9.5V4.365a2.417,2.417,0,0,0,1.454.483Zm8.044,3.3A.606.606,0,1,1,9.9,7.537.606.606,0,0,1,10.5,8.143Zm0-5.718a.485.485,0,0,0-.485-.485H2.461a.485.485,0,0,0,0,.969h7.56A.485.485,0,0,0,10.5,2.425Z" transform="translate(-0.038)" fill="#292929"/>
</svg>
