<svg id="Group_14" data-name="Group 14" xmlns="http://www.w3.org/2000/svg" width="22.902" height="22.902" viewBox="0 0 22.902 22.902">
  <path id="Path_27" data-name="Path 27" d="M337.877,285.19a1.913,1.913,0,0,1-1.789-1.234l-7.156-19.089a1.923,1.923,0,0,1,.429-2.022,1.881,1.881,0,0,1,2.022-.429l19.089,7.156a1.9,1.9,0,0,1-.215,3.632l-8.426,2.111-2.111,8.426a1.925,1.925,0,0,1-1.735,1.449Zm-3.9-17.729,3.524,9.41.895-3.6a1.936,1.936,0,0,1,1.4-1.4l3.6-.895Z" transform="translate(-328.808 -262.287)" fill="#292929"/>
</svg>
