<svg xmlns="http://www.w3.org/2000/svg" width="27.073" height="20.378" viewBox="0 0 27.073 20.378">
  <g id="list" transform="translate(0 -7.434)">
    <path id="Path_74" data-name="Path 74" d="M33.374,48.595h-18.1a1.351,1.351,0,0,1,0-2.7h18.1a1.351,1.351,0,0,1,0,2.7Z" transform="translate(-7.652 -21.141)"/>
    <path id="Path_75" data-name="Path 75" d="M33.374,29.764h-18.1a1.351,1.351,0,1,1,0-2.7h18.1a1.351,1.351,0,0,1,0,2.7Z" transform="translate(-7.652 -10.79)"/>
    <path id="Path_76" data-name="Path 76" d="M33.374,10.933h-18.1a1.351,1.351,0,1,1,0-2.7h18.1a1.351,1.351,0,0,1,0,2.7Z" transform="translate(-7.652 -0.438)"/>
    <circle id="Ellipse_1" data-name="Ellipse 1" cx="1.814" cy="1.814" r="1.814" transform="translate(0 7.434)"/>
    <circle id="Ellipse_2" data-name="Ellipse 2" cx="1.814" cy="1.814" r="1.814" transform="translate(0 15.809)"/>
    <circle id="Ellipse_3" data-name="Ellipse 3" cx="1.814" cy="1.814" r="1.814" transform="translate(0 24.184)"/>
  </g>
</svg>
