<svg xmlns="http://www.w3.org/2000/svg" width="18.196" height="8.43" viewBox="0 0 18.196 8.43">
  <g id="straight-right-arrow" transform="translate(0 -25.585)">
    <path id="Path_61" data-name="Path 61" d="M17.864,29.3l-5.681-3.567c-.587-.359-1.468-.035-1.468.556v1.193a.752.752,0,0,1-.807.718H.881C.4,28.2,0,28.479,0,28.873v1.876a.815.815,0,0,0,.881.695H9.908a.727.727,0,0,1,.807.683V33.32c0,.579.881.9,1.453.544l5.666-3.474A.6.6,0,0,0,17.864,29.3Z" transform="translate(0 0)" fill="#fff"/>
  </g>
</svg>
