<svg id="regular" xmlns="http://www.w3.org/2000/svg" width="76.907" height="28.249" viewBox="0 0 76.907 28.249">
  <g id="Group_11" data-name="Group 11">
    <path id="Path_24" data-name="Path 24" d="M156.6,222.549H90.909A5.624,5.624,0,0,1,85.3,216.94v-17.03a5.624,5.624,0,0,1,5.609-5.609H156.6a5.624,5.624,0,0,1,5.609,5.609v17.03A5.61,5.61,0,0,1,156.6,222.549ZM90.909,199.121a.808.808,0,0,0-.811.811v17.03a.808.808,0,0,0,.811.811H156.6a.808.808,0,0,0,.811-.811v-17.03a.808.808,0,0,0-.811-.811Z" transform="translate(-85.3 -194.3)" fill="#292929"/>
  </g>
</svg>
