<svg xmlns="http://www.w3.org/2000/svg" width="14.135" height="16" viewBox="0 0 14.135 16">
  <g id="shopping-list" transform="translate(6 -12.356)">
    <g id="Group_16" data-name="Group 16" transform="translate(-6 12.356)">
      <path id="Path_48" data-name="Path 48" d="M14.059,4.866a.555.555,0,0,0-.361-.293L5.692,2.368a.536.536,0,0,0-.616.4L2.024,11.624l1.019.424L5.935,3.624l6.957,2.029c-.434,1.539-1.468,4.752-2.459,7.744-.864,2.61-1.361,3.5-2.306,3.686a.007.007,0,0,1,0,0c-1.931.309-1.9-2.5-1.9-2.5L.06,11.726c-.438,3.175,1.7,3.939,1.7,3.939l4.516,2.343a3.145,3.145,0,0,0,1.472.345c2.067-.056,2.793-1.771,3.7-4.518,1.315-3.971,2.649-8.42,2.662-8.468A.69.69,0,0,0,14.059,4.866Z" transform="translate(0 -2.356)" fill="#292929"/>
      <path id="Path_49" data-name="Path 49" d="M270.793,127.76a.542.542,0,1,0,.285-1.046l-2.35-.725a.542.542,0,1,0-.286,1.046Z" transform="translate(-260.384 -121.857)" fill="#292929"/>
      <path id="Path_50" data-name="Path 50" d="M234.839,203.372a.543.543,0,0,0,.343.686l2.338.835a.538.538,0,0,0,.169.028.542.542,0,0,0,.175-1.056l-2.337-.835A.543.543,0,0,0,234.839,203.372Z" transform="translate(-228.102 -196.319)" fill="#292929"/>
      <path id="Path_51" data-name="Path 51" d="M204.4,282.233a.542.542,0,1,0-.338,1.029l2.342.832a.523.523,0,0,0,.17.027.542.542,0,0,0,.168-1.057Z" transform="translate(-197.864 -272.885)" fill="#292929"/>
      <path id="Path_52" data-name="Path 52" d="M205.1,104.517a.585.585,0,1,1-.6.585A.593.593,0,0,1,205.1,104.517Z" transform="translate(-198.656 -101.143)" fill="#292929"/>
      <path id="Path_53" data-name="Path 53" d="M175.333,180.572a.584.584,0,1,1-.6.584A.593.593,0,0,1,175.333,180.572Z" transform="translate(-169.738 -174.686)" fill="#292929"/>
      <path id="Path_54" data-name="Path 54" d="M143.583,259.039a.585.585,0,1,1-.6.585A.594.594,0,0,1,143.583,259.039Z" transform="translate(-138.895 -250.561)" fill="#292929"/>
    </g>
  </g>
</svg>
