<svg xmlns="http://www.w3.org/2000/svg" width="14.848" height="15.784" viewBox="0 0 14.848 15.784">
  <g id="upload" transform="translate(0.4 0.4)">
    <g id="Group_19" data-name="Group 19" transform="translate(3.278)">
      <g id="Group_18" data-name="Group 18">
        <path id="Path_59" data-name="Path 59" d="M135.374,3.906,132.1.16a.467.467,0,0,0-.7,0l-3.278,3.746a.468.468,0,0,0,.352.776h1.873V10.77a.468.468,0,0,0,.468.468h1.873a.468.468,0,0,0,.468-.468V4.683h1.873a.468.468,0,0,0,.352-.776Z" transform="translate(-127.998)" fill="none" stroke="#000" stroke-width="0.8"/>
      </g>
    </g>
    <g id="Group_21" data-name="Group 21" transform="translate(0 10.302)">
      <g id="Group_20" data-name="Group 20">
        <path id="Path_60" data-name="Path 60" d="M28.175,352v2.809h-10.3V352H16v3.746a.936.936,0,0,0,.937.936H29.111a.936.936,0,0,0,.937-.936V352Z" transform="translate(-16 -352)" fill="none" stroke="#000" stroke-width="0.8"/>
      </g>
    </g>
  </g>
</svg>
