<svg id="user" xmlns="http://www.w3.org/2000/svg" width="14.938" height="17.904" viewBox="0 0 14.938 17.904">
  <path id="Path_72" data-name="Path 72" d="M91.344,8.625a4.173,4.173,0,0,0,3.049-1.263,4.172,4.172,0,0,0,1.263-3.049,4.173,4.173,0,0,0-1.263-3.049,4.311,4.311,0,0,0-6.1,0,4.173,4.173,0,0,0-1.263,3.049A4.172,4.172,0,0,0,88.3,7.361,4.174,4.174,0,0,0,91.344,8.625Zm0,0" transform="translate(-83.988 0)" fill="#1a1a1a"/>
  <path id="Path_73" data-name="Path 73" d="M14.9,252.435a10.651,10.651,0,0,0-.145-1.131,8.914,8.914,0,0,0-.278-1.137,5.619,5.619,0,0,0-.468-1.061,4,4,0,0,0-.705-.919,3.109,3.109,0,0,0-1.013-.636A3.5,3.5,0,0,0,11,247.316a1.313,1.313,0,0,0-.7.3c-.21.137-.456.3-.73.471a4.184,4.184,0,0,1-.945.416,3.668,3.668,0,0,1-2.311,0,4.173,4.173,0,0,1-.944-.416c-.272-.174-.518-.332-.731-.471a1.311,1.311,0,0,0-.7-.3,3.5,3.5,0,0,0-1.293.234,3.106,3.106,0,0,0-1.013.636,4,4,0,0,0-.7.919,5.629,5.629,0,0,0-.468,1.061A8.934,8.934,0,0,0,.181,251.3a10.614,10.614,0,0,0-.145,1.132c-.024.343-.036.7-.036,1.057a2.973,2.973,0,0,0,.883,2.249,3.178,3.178,0,0,0,2.275.83h8.621a3.178,3.178,0,0,0,2.275-.83,2.972,2.972,0,0,0,.883-2.249c0-.361-.012-.717-.036-1.058Zm0,0" transform="translate(0 -238.668)" fill="#1a1a1a"/>
</svg>
